<svg xmlns="http://www.w3.org/2000/svg" xmlns:xlink="http://www.w3.org/1999/xlink" contentStyleType="text/css" data-diagram-type="ACTIVITY" height="1458px" preserveAspectRatio="none" style="width:802px;height:1458px;background:#FFFFFF;" version="1.1" viewBox="0 0 802 1458" width="802px" zoomAndPan="magnify"><?plantuml 1.2026.6?><defs/><g><g class="title" data-source-line="2"><text fill="#000000" font-family="Arial" font-size="14" font-weight="700" lengthAdjust="spacing" textLength="496.8154" x="151.7446" y="33.1318">&#1069;&#1082;&#1089;&#1087;&#1077;&#1088;&#1080;&#1084;&#1077;&#1085;&#1090;: &#1087;&#1088;&#1080;&#1095;&#1080;&#1085;&#1072; &#1085;&#1077;&#1086;&#1087;&#1088;&#1077;&#1076;&#1077;&#1083;&#1105;&#1085;&#1085;&#1086;&#1089;&#1090;&#1080; &#8594; &#1086;&#1076;&#1085;&#1072; &#1087;&#1086;&#1074;&#1090;&#1086;&#1088;&#1085;&#1072;&#1103; &#1087;&#1088;&#1086;&#1074;&#1077;&#1088;&#1082;&#1072;</text></g><ellipse cx="396.9629" cy="62.0986" fill="#222222" rx="10" ry="10" style="stroke:#222222;stroke-width:1;"/><rect fill="#F1F1F1" height="33.7988" rx="12.5" ry="12.5" style="stroke:#181818;stroke-width:0.5;" width="246.3418" x="273.792" y="92.0986"/><text fill="#000000" font-family="Arial" font-size="12" lengthAdjust="spacing" textLength="226.3418" x="283.792" y="113.3545">&#1058;&#1086;&#1095;&#1085;&#1099;&#1077; &#1087;&#1088;&#1086;&#1074;&#1077;&#1088;&#1082;&#1080; + &#1089;&#1091;&#1097;&#1077;&#1089;&#1090;&#1074;&#1091;&#1102;&#1097;&#1080;&#1081; &#1075;&#1088;&#1072;&#1092;</text><rect fill="#F1F1F1" height="33.7988" rx="12.5" ry="12.5" style="stroke:#181818;stroke-width:0.5;" width="113.1582" x="340.3838" y="194.2219"/><text fill="#000000" font-family="Arial" font-size="12" lengthAdjust="spacing" textLength="93.1582" x="350.3838" y="215.4778">&#1052;&#1077;&#1090;&#1082;&#1072; 1 &#1073;&#1077;&#1079; LLM</text><ellipse cx="396.9629" cy="267.6213" fill="none" rx="11" ry="11" style="stroke:#222222;stroke-width:1;"/><ellipse cx="396.9629" cy="267.6213" fill="#222222" rx="6" ry="6" style="stroke:#222222;stroke-width:1;"/><polygon fill="#F1F1F1" points="345.3923,145.8975,448.5334,145.8975,460.5334,157.8975,448.5334,169.8975,345.3923,169.8975,333.3923,157.8975,345.3923,145.8975" style="stroke:#181818;stroke-width:0.5;stroke-linejoin:miter;stroke-miterlimit:10;"/><text fill="#000000" font-family="Arial" font-size="11" lengthAdjust="spacing" textLength="12.5361" x="400.9629" y="180.2153">&#1076;&#1072;</text><text fill="#000000" font-family="Arial" font-size="11" lengthAdjust="spacing" textLength="103.1411" x="345.3923" y="161.8909">&#1058;&#1086;&#1095;&#1085;&#1086;&#1077; &#1085;&#1072;&#1088;&#1091;&#1096;&#1077;&#1085;&#1080;&#1077;?</text><rect fill="#F1F1F1" height="33.7988" rx="12.5" ry="12.5" style="stroke:#181818;stroke-width:0.5;" width="156.084" x="318.9209" y="320.6213"/><text fill="#000000" font-family="Arial" font-size="12" lengthAdjust="spacing" textLength="136.084" x="328.9209" y="341.8772">&#1053;&#1072;&#1095;&#1072;&#1083;&#1100;&#1085;&#1099;&#1081; reader-&#1087;&#1072;&#1082;&#1077;&#1090;</text><rect fill="#F1F1F1" height="33.7988" rx="12.5" ry="12.5" style="stroke:#181818;stroke-width:0.5;" width="236.8379" x="278.5439" y="374.4202"/><text fill="#000000" font-family="Arial" font-size="12" lengthAdjust="spacing" textLength="216.8379" x="288.5439" y="395.676">&#1054;&#1076;&#1080;&#1085; &#1086;&#1090;&#1074;&#1077;&#1090; LLM &#1089; claims &#1080; &#1103;&#1074;&#1085;&#1099;&#1084; need</text><rect fill="#F1F1F1" height="33.7988" rx="12.5" ry="12.5" style="stroke:#181818;stroke-width:0.5;" width="312.9219" x="240.502" y="428.219"/><text fill="#000000" font-family="Arial" font-size="12" lengthAdjust="spacing" textLength="292.9219" x="250.502" y="449.4749">&#1057;&#1090;&#1088;&#1086;&#1075;&#1072;&#1103; &#1087;&#1088;&#1086;&#1074;&#1077;&#1088;&#1082;&#1072; + &#1089;&#1086;&#1093;&#1088;&#1072;&#1085;&#1077;&#1085;&#1080;&#1077; &#1080;&#1089;&#1093;&#1086;&#1076;&#1085;&#1099;&#1093; &#1089;&#1091;&#1078;&#1076;&#1077;&#1085;&#1080;&#1081;</text><rect fill="#F1F1F1" height="47.5977" rx="12.5" ry="12.5" style="stroke:#181818;stroke-width:0.5;" width="238.6074" x="277.6592" y="530.3423"/><text fill="#000000" font-family="Arial" font-size="12" lengthAdjust="spacing" textLength="118.2715" x="287.6592" y="551.5981">&#1058;&#1077;&#1093;&#1085;&#1080;&#1095;&#1077;&#1089;&#1082;&#1080;&#1081; fallback;</text><text fill="#000000" font-family="Arial" font-size="12" lengthAdjust="spacing" textLength="218.6074" x="287.6592" y="565.397">&#1085;&#1077; &#1074;&#1099;&#1076;&#1091;&#1084;&#1099;&#1074;&#1072;&#1090;&#1100; &#1089;&#1084;&#1099;&#1089;&#1083;&#1086;&#1074;&#1086;&#1081; UNKNOWN</text><ellipse cx="396.9629" cy="610.6411" fill="none" rx="11" ry="11" style="stroke:#222222;stroke-width:1;"/><ellipse cx="396.9629" cy="610.6411" fill="#222222" rx="6" ry="6" style="stroke:#222222;stroke-width:1;"/><polygon fill="#F1F1F1" points="319.9924,482.0178,473.9333,482.0178,485.9333,494.0178,473.9333,506.0178,319.9924,506.0178,307.9924,494.0178,319.9924,482.0178" style="stroke:#181818;stroke-width:0.5;stroke-linejoin:miter;stroke-miterlimit:10;"/><text fill="#000000" font-family="Arial" font-size="11" lengthAdjust="spacing" textLength="17.2305" x="400.9629" y="516.3357">&#1085;&#1077;&#1090;</text><text fill="#000000" font-family="Arial" font-size="11" lengthAdjust="spacing" textLength="153.9409" x="319.9924" y="498.0112">&#1055;&#1086;&#1083;&#1091;&#1095;&#1077;&#1085; &#1088;&#1072;&#1079;&#1073;&#1080;&#1088;&#1072;&#1077;&#1084;&#1099;&#1081; &#1086;&#1090;&#1074;&#1077;&#1090;?</text><rect fill="#F1F1F1" height="33.7988" rx="12.5" ry="12.5" style="stroke:#181818;stroke-width:0.5;" width="110.4453" x="341.7402" y="711.9656"/><text fill="#000000" font-family="Arial" font-size="12" lengthAdjust="spacing" textLength="90.4453" x="351.7402" y="733.2214">&#1057;&#1086;&#1093;&#1088;&#1072;&#1085;&#1080;&#1090;&#1100; initial</text><ellipse cx="396.9629" cy="785.365" fill="none" rx="11" ry="11" style="stroke:#222222;stroke-width:1;"/><ellipse cx="396.9629" cy="785.365" fill="#222222" rx="6" ry="6" style="stroke:#222222;stroke-width:1;"/><polygon fill="#F1F1F1" points="319.2781,663.6411,474.6477,663.6411,486.6477,675.6411,474.6477,687.6411,319.2781,687.6411,307.2781,675.6411,319.2781,663.6411" style="stroke:#181818;stroke-width:0.5;stroke-linejoin:miter;stroke-miterlimit:10;"/><text fill="#000000" font-family="Arial" font-size="11" lengthAdjust="spacing" textLength="17.2305" x="400.9629" y="697.959">&#1085;&#1077;&#1090;</text><text fill="#000000" font-family="Arial" font-size="11" lengthAdjust="spacing" textLength="155.3696" x="319.2781" y="679.6345">&#1055;&#1088;&#1080;&#1095;&#1080;&#1085;&#1072; &#1076;&#1086;&#1087;&#1091;&#1089;&#1082;&#1072;&#1077;&#1090; &#1076;&#1077;&#1081;&#1089;&#1090;&#1074;&#1080;&#1077;?</text><rect fill="#555555" height="6" rx="2.5" ry="2.5" style="stroke:#555555;stroke-width:1;" width="766.3047" x="16" y="838.365"/><rect fill="#F1F1F1" height="47.5977" rx="12.5" ry="12.5" style="stroke:#181818;stroke-width:0.5;" width="202.502" x="28" y="965.9626"/><text fill="#000000" font-family="Arial" font-size="12" lengthAdjust="spacing" textLength="93.082" x="38" y="987.2185">&#1050;&#1086;&#1085;&#1090;&#1088;&#1086;&#1083;&#1100; repeat;</text><text fill="#000000" font-family="Arial" font-size="12" lengthAdjust="spacing" textLength="182.502" x="38" y="1001.0173">&#1090;&#1086;&#1095;&#1085;&#1086; &#1090;&#1077; &#1078;&#1077; &#1074;&#1093;&#1086;&#1076;&#1085;&#1099;&#1077; &#1089;&#1086;&#1086;&#1073;&#1097;&#1077;&#1085;&#1080;&#1103;</text><rect fill="#F1F1F1" height="33.7988" rx="12.5" ry="12.5" style="stroke:#181818;stroke-width:0.5;" width="146.9258" x="55.7881" y="1048.5603"/><text fill="#000000" font-family="Arial" font-size="12" lengthAdjust="spacing" textLength="126.9258" x="65.7881" y="1069.8162">&#1054;&#1076;&#1085;&#1072; &#1085;&#1086;&#1074;&#1072;&#1103; &#1075;&#1077;&#1085;&#1077;&#1088;&#1072;&#1094;&#1080;&#1103;</text><polygon fill="#F1F1F1" points="457.6187,864.365,557.8647,864.365,569.8647,876.365,557.8647,888.365,457.6187,888.365,445.6187,876.365,457.6187,864.365" style="stroke:#181818;stroke-width:0.5;stroke-linejoin:miter;stroke-miterlimit:10;"/><text fill="#000000" font-family="Arial" font-size="11" lengthAdjust="spacing" textLength="100.2461" x="457.6187" y="880.3584">INVALID_OUTPUT?</text><text fill="#000000" font-family="Arial" font-size="11" lengthAdjust="spacing" textLength="12.5361" x="433.0825" y="874.0339">&#1076;&#1072;</text><text fill="#000000" font-family="Arial" font-size="11" lengthAdjust="spacing" textLength="108.8022" x="569.8647" y="874.0339">MISSING_EVIDENCE</text><rect fill="#F1F1F1" height="33.7988" rx="12.5" ry="12.5" style="stroke:#181818;stroke-width:0.5;" width="239.1465" x="254.123" y="898.365"/><text fill="#000000" font-family="Arial" font-size="12" lengthAdjust="spacing" textLength="219.1465" x="264.123" y="919.6208">&#1058;&#1077; &#1078;&#1077; &#1080;&#1089;&#1090;&#1086;&#1095;&#1085;&#1080;&#1082;&#1080; + &#1087;&#1088;&#1080;&#1095;&#1080;&#1085;&#1072; &#1086;&#1090;&#1082;&#1083;&#1086;&#1085;&#1077;&#1085;&#1080;&#1103;</text><rect fill="#F1F1F1" height="47.5977" rx="12.5" ry="12.5" style="stroke:#181818;stroke-width:0.5;" width="246.5527" x="518.5107" y="898.365"/><text fill="#000000" font-family="Arial" font-size="12" lengthAdjust="spacing" textLength="226.5527" x="528.5107" y="919.6208">&#1054;&#1076;&#1080;&#1085; &#1083;&#1086;&#1082;&#1072;&#1083;&#1100;&#1085;&#1099;&#1081; read/search/graph/entity</text><text fill="#000000" font-family="Arial" font-size="12" lengthAdjust="spacing" textLength="116.7305" x="528.5107" y="933.4197">&#1087;&#1086; &#1082;&#1086;&#1085;&#1082;&#1088;&#1077;&#1090;&#1085;&#1086;&#1084;&#1091; need</text><rect fill="#F1F1F1" height="33.7988" rx="12.5" ry="12.5" style="stroke:#181818;stroke-width:0.5;" width="257.0352" x="513.2695" y="967.9626"/><text fill="#000000" font-family="Arial" font-size="12" lengthAdjust="spacing" textLength="237.0352" x="523.2695" y="989.2185">&#1059;&#1095;&#1077;&#1089;&#1090;&#1100; &#1076;&#1086;&#1089;&#1090;&#1072;&#1074;&#1082;&#1091; &#1080; &#1074;&#1099;&#1090;&#1077;&#1089;&#1085;&#1077;&#1085;&#1080;&#1077; &#1080;&#1089;&#1090;&#1086;&#1095;&#1085;&#1080;&#1082;&#1086;&#1074;</text><polygon fill="#F1F1F1" points="507.7417,1007.7615,519.7417,1019.7615,507.7417,1031.7615,495.7417,1019.7615,507.7417,1007.7615" style="stroke:#181818;stroke-width:0.5;stroke-linejoin:miter;stroke-miterlimit:10;"/><rect fill="#F1F1F1" height="47.5977" rx="12.5" ry="12.5" style="stroke:#181818;stroke-width:0.5;" width="259.2676" x="378.1079" y="1066.7615"/><text fill="#000000" font-family="Arial" font-size="12" lengthAdjust="spacing" textLength="203.5957" x="388.1079" y="1088.0173">&#1055;&#1077;&#1088;&#1077;&#1089;&#1084;&#1072;&#1090;&#1088;&#1080;&#1074;&#1072;&#1077;&#1084;&#1099;&#1077; &#1087;&#1088;&#1077;&#1078;&#1085;&#1080;&#1077; claims;</text><text fill="#000000" font-family="Arial" font-size="12" lengthAdjust="spacing" textLength="239.2676" x="388.1079" y="1101.8162">&#1085;&#1077;&#1076;&#1086;&#1089;&#1090;&#1091;&#1087;&#1085;&#1072;&#1103; &#1086;&#1087;&#1086;&#1088;&#1072; &#8594; &#1090;&#1077;&#1082;&#1091;&#1097;&#1077;&#1077; UNKNOWN</text><rect fill="#F1F1F1" height="47.5977" rx="12.5" ry="12.5" style="stroke:#181818;stroke-width:0.5;" width="283.8066" x="365.8384" y="1134.3591"/><text fill="#000000" font-family="Arial" font-size="12" lengthAdjust="spacing" textLength="196.7813" x="375.8384" y="1155.615">&#1053;&#1077; &#1073;&#1086;&#1083;&#1077;&#1077; &#1086;&#1076;&#1085;&#1086;&#1081; &#1087;&#1086;&#1074;&#1090;&#1086;&#1088;&#1085;&#1086;&#1081; &#1086;&#1094;&#1077;&#1085;&#1082;&#1080;;</text><text fill="#000000" font-family="Arial" font-size="12" lengthAdjust="spacing" textLength="263.8066" x="375.8384" y="1169.4138">&#1073;&#1077;&#1079; &#1085;&#1086;&#1074;&#1099;&#1093; &#1080;&#1089;&#1090;&#1086;&#1095;&#1085;&#1080;&#1082;&#1086;&#1074; &#1095;&#1090;&#1077;&#1085;&#1080;&#1077; &#1086;&#1089;&#1090;&#1072;&#1085;&#1072;&#1074;&#1083;&#1080;&#1074;&#1072;&#1077;&#1090;&#1089;&#1103;</text><rect fill="#555555" height="6" rx="2.5" ry="2.5" style="stroke:#555555;stroke-width:1;" width="766.3047" x="16" y="1201.9568"/><rect fill="#F1F1F1" height="33.7988" rx="12.5" ry="12.5" style="stroke:#181818;stroke-width:0.5;" width="211.1563" x="291.3848" y="1227.9568"/><text fill="#000000" font-family="Arial" font-size="12" lengthAdjust="spacing" textLength="191.1563" x="301.3848" y="1249.2126">&#1055;&#1088;&#1077;&#1078;&#1085;&#1080;&#1081; strict gate &#1074; &#1086;&#1073;&#1077;&#1080;&#1093; &#1074;&#1077;&#1090;&#1082;&#1072;&#1093;</text><rect fill="#F1F1F1" height="47.5977" rx="12.5" ry="12.5" style="stroke:#181818;stroke-width:0.5;" width="302.7734" x="245.5762" y="1281.7556"/><text fill="#000000" font-family="Arial" font-size="12" lengthAdjust="spacing" textLength="235.8691" x="255.5762" y="1303.0115">UNKNOWN &#1085;&#1077; &#1086;&#1079;&#1085;&#1072;&#1095;&#1072;&#1077;&#1090; CONTRADICTED;</text><text fill="#000000" font-family="Arial" font-size="12" lengthAdjust="spacing" textLength="282.7734" x="255.5762" y="1316.8103">&#1085;&#1077;&#1090; &#1088;&#1091;&#1095;&#1085;&#1099;&#1093; &#1074;&#1077;&#1089;&#1086;&#1074; &#1080;&#1083;&#1080; &#1072;&#1074;&#1090;&#1086;&#1084;&#1072;&#1090;&#1080;&#1095;&#1077;&#1089;&#1082;&#1086;&#1075;&#1086; &#1074;&#1082;&#1083;&#1102;&#1095;&#1077;&#1085;&#1080;&#1103;</text><rect fill="#F1F1F1" height="47.5977" rx="12.5" ry="12.5" style="stroke:#181818;stroke-width:0.5;" width="256.2148" x="268.8555" y="1349.3533"/><text fill="#000000" font-family="Arial" font-size="12" lengthAdjust="spacing" textLength="184.2012" x="278.8555" y="1370.6091">&#1057;&#1088;&#1072;&#1074;&#1085;&#1080;&#1090;&#1100; initial / repeat / directed:</text><text fill="#000000" font-family="Arial" font-size="12" lengthAdjust="spacing" textLength="236.2148" x="278.8555" y="1384.408">F1, &#1085;&#1086;&#1074;&#1099;&#1077; FP, &#1080;&#1089;&#1087;&#1088;&#1072;&#1074;&#1083;&#1077;&#1085;&#1085;&#1099;&#1077; FN, &#1087;&#1088;&#1080;&#1095;&#1080;&#1085;&#1099;</text><ellipse cx="396.9629" cy="1427.9509" fill="none" rx="11" ry="11" style="stroke:#222222;stroke-width:1;"/><ellipse cx="396.9629" cy="1427.9509" fill="#222222" rx="6" ry="6" style="stroke:#222222;stroke-width:1;"/><line style="stroke:#181818;stroke-width:1;" x1="396.9629" x2="396.9629" y1="72.0986" y2="92.0986"/><polygon fill="#181818" points="392.9629,82.0986,396.9629,92.0986,400.9629,82.0986,396.9629,86.0986" style="stroke:#181818;stroke-width:1;stroke-linejoin:miter;stroke-miterlimit:10;"/><line style="stroke:#181818;stroke-width:1;" x1="396.9629" x2="396.9629" y1="228.0208" y2="256.6213"/><polygon fill="#181818" points="392.9629,246.6213,396.9629,256.6213,400.9629,246.6213,396.9629,250.6213" style="stroke:#181818;stroke-width:1;stroke-linejoin:miter;stroke-miterlimit:10;"/><line style="stroke:#181818;stroke-width:1;" x1="396.9629" x2="396.9629" y1="169.8975" y2="194.2219"/><polygon fill="#181818" points="392.9629,184.2219,396.9629,194.2219,400.9629,184.2219,396.9629,188.2219" style="stroke:#181818;stroke-width:1;stroke-linejoin:miter;stroke-miterlimit:10;"/><line style="stroke:#181818;stroke-width:1;" x1="460.5334" x2="472.5334" y1="157.8975" y2="157.8975"/><polygon fill="#181818" points="468.5334,226.6213,472.5334,236.6213,476.5334,226.6213,472.5334,230.6213" style="stroke:#181818;stroke-width:1;stroke-linejoin:miter;stroke-miterlimit:10;"/><line style="stroke:#181818;stroke-width:1;" x1="472.5334" x2="472.5334" y1="157.8975" y2="300.6213"/><line style="stroke:#181818;stroke-width:1;" x1="472.5334" x2="396.9629" y1="300.6213" y2="300.6213"/><line style="stroke:#181818;stroke-width:1;" x1="396.9629" x2="396.9629" y1="300.6213" y2="320.6213"/><polygon fill="#181818" points="392.9629,310.6213,396.9629,320.6213,400.9629,310.6213,396.9629,314.6213" style="stroke:#181818;stroke-width:1;stroke-linejoin:miter;stroke-miterlimit:10;"/><line style="stroke:#181818;stroke-width:1;" x1="396.9629" x2="396.9629" y1="125.8975" y2="145.8975"/><polygon fill="#181818" points="392.9629,135.8975,396.9629,145.8975,400.9629,135.8975,396.9629,139.8975" style="stroke:#181818;stroke-width:1;stroke-linejoin:miter;stroke-miterlimit:10;"/><line style="stroke:#181818;stroke-width:1;" x1="396.9629" x2="396.9629" y1="354.4202" y2="374.4202"/><polygon fill="#181818" points="392.9629,364.4202,396.9629,374.4202,400.9629,364.4202,396.9629,368.4202" style="stroke:#181818;stroke-width:1;stroke-linejoin:miter;stroke-miterlimit:10;"/><line style="stroke:#181818;stroke-width:1;" x1="396.9629" x2="396.9629" y1="408.219" y2="428.219"/><polygon fill="#181818" points="392.9629,418.219,396.9629,428.219,400.9629,418.219,396.9629,422.219" style="stroke:#181818;stroke-width:1;stroke-linejoin:miter;stroke-miterlimit:10;"/><line style="stroke:#181818;stroke-width:1;" x1="396.9629" x2="396.9629" y1="577.9399" y2="599.6411"/><polygon fill="#181818" points="392.9629,589.6411,396.9629,599.6411,400.9629,589.6411,396.9629,593.6411" style="stroke:#181818;stroke-width:1;stroke-linejoin:miter;stroke-miterlimit:10;"/><line style="stroke:#181818;stroke-width:1;" x1="396.9629" x2="396.9629" y1="506.0178" y2="530.3423"/><polygon fill="#181818" points="392.9629,520.3423,396.9629,530.3423,400.9629,520.3423,396.9629,524.3423" style="stroke:#181818;stroke-width:1;stroke-linejoin:miter;stroke-miterlimit:10;"/><line style="stroke:#181818;stroke-width:1;" x1="485.9333" x2="526.2666" y1="494.0178" y2="494.0178"/><polygon fill="#181818" points="522.2666,569.6411,526.2666,579.6411,530.2666,569.6411,526.2666,573.6411" style="stroke:#181818;stroke-width:1;stroke-linejoin:miter;stroke-miterlimit:10;"/><line style="stroke:#181818;stroke-width:1;" x1="526.2666" x2="526.2666" y1="494.0178" y2="643.6411"/><line style="stroke:#181818;stroke-width:1;" x1="526.2666" x2="396.9629" y1="643.6411" y2="643.6411"/><line style="stroke:#181818;stroke-width:1;" x1="396.9629" x2="396.9629" y1="643.6411" y2="663.6411"/><polygon fill="#181818" points="392.9629,653.6411,396.9629,663.6411,400.9629,653.6411,396.9629,657.6411" style="stroke:#181818;stroke-width:1;stroke-linejoin:miter;stroke-miterlimit:10;"/><line style="stroke:#181818;stroke-width:1;" x1="396.9629" x2="396.9629" y1="462.0178" y2="482.0178"/><polygon fill="#181818" points="392.9629,472.0178,396.9629,482.0178,400.9629,472.0178,396.9629,476.0178" style="stroke:#181818;stroke-width:1;stroke-linejoin:miter;stroke-miterlimit:10;"/><line style="stroke:#181818;stroke-width:1;" x1="396.9629" x2="396.9629" y1="745.7644" y2="774.365"/><polygon fill="#181818" points="392.9629,764.365,396.9629,774.365,400.9629,764.365,396.9629,768.365" style="stroke:#181818;stroke-width:1;stroke-linejoin:miter;stroke-miterlimit:10;"/><line style="stroke:#181818;stroke-width:1;" x1="396.9629" x2="396.9629" y1="687.6411" y2="711.9656"/><polygon fill="#181818" points="392.9629,701.9656,396.9629,711.9656,400.9629,701.9656,396.9629,705.9656" style="stroke:#181818;stroke-width:1;stroke-linejoin:miter;stroke-miterlimit:10;"/><line style="stroke:#181818;stroke-width:1;" x1="486.6477" x2="498.6477" y1="675.6411" y2="675.6411"/><polygon fill="#181818" points="494.6477,744.365,498.6477,754.365,502.6477,744.365,498.6477,748.365" style="stroke:#181818;stroke-width:1;stroke-linejoin:miter;stroke-miterlimit:10;"/><line style="stroke:#181818;stroke-width:1;" x1="498.6477" x2="498.6477" y1="675.6411" y2="818.365"/><line style="stroke:#181818;stroke-width:1;" x1="498.6477" x2="396.9629" y1="818.365" y2="818.365"/><line style="stroke:#181818;stroke-width:1;" x1="396.9629" x2="396.9629" y1="818.365" y2="838.365"/><polygon fill="#181818" points="392.9629,828.365,396.9629,838.365,400.9629,828.365,396.9629,832.365" style="stroke:#181818;stroke-width:1;stroke-linejoin:miter;stroke-miterlimit:10;"/><line style="stroke:#181818;stroke-width:1;" x1="129.251" x2="129.251" y1="1013.5603" y2="1048.5603"/><polygon fill="#181818" points="125.251,1038.5603,129.251,1048.5603,133.251,1038.5603,129.251,1042.5603" style="stroke:#181818;stroke-width:1;stroke-linejoin:miter;stroke-miterlimit:10;"/><line style="stroke:#181818;stroke-width:1;" x1="641.7871" x2="641.7871" y1="945.9626" y2="967.9626"/><polygon fill="#181818" points="637.7871,957.9626,641.7871,967.9626,645.7871,957.9626,641.7871,961.9626" style="stroke:#181818;stroke-width:1;stroke-linejoin:miter;stroke-miterlimit:10;"/><line style="stroke:#181818;stroke-width:1;" x1="445.6187" x2="373.6963" y1="876.365" y2="876.365"/><line style="stroke:#181818;stroke-width:1;" x1="373.6963" x2="373.6963" y1="876.365" y2="898.365"/><polygon fill="#181818" points="369.6963,888.365,373.6963,898.365,377.6963,888.365,373.6963,892.365" style="stroke:#181818;stroke-width:1;stroke-linejoin:miter;stroke-miterlimit:10;"/><line style="stroke:#181818;stroke-width:1;" x1="569.8647" x2="641.7871" y1="876.365" y2="876.365"/><line style="stroke:#181818;stroke-width:1;" x1="641.7871" x2="641.7871" y1="876.365" y2="898.365"/><polygon fill="#181818" points="637.7871,888.365,641.7871,898.365,645.7871,888.365,641.7871,892.365" style="stroke:#181818;stroke-width:1;stroke-linejoin:miter;stroke-miterlimit:10;"/><line style="stroke:#181818;stroke-width:1;" x1="373.6963" x2="373.6963" y1="932.1638" y2="1019.7615"/><line style="stroke:#181818;stroke-width:1;" x1="373.6963" x2="495.7417" y1="1019.7615" y2="1019.7615"/><polygon fill="#181818" points="485.7417,1015.7615,495.7417,1019.7615,485.7417,1023.7615,489.7417,1019.7615" style="stroke:#181818;stroke-width:1;stroke-linejoin:miter;stroke-miterlimit:10;"/><line style="stroke:#181818;stroke-width:1;" x1="641.7871" x2="641.7871" y1="1001.7615" y2="1019.7615"/><line style="stroke:#181818;stroke-width:1;" x1="641.7871" x2="519.7417" y1="1019.7615" y2="1019.7615"/><polygon fill="#181818" points="529.7417,1015.7615,519.7417,1019.7615,529.7417,1023.7615,525.7417,1019.7615" style="stroke:#181818;stroke-width:1;stroke-linejoin:miter;stroke-miterlimit:10;"/><line style="stroke:#181818;stroke-width:1;" x1="507.7417" x2="507.7417" y1="1031.7615" y2="1066.7615"/><polygon fill="#181818" points="503.7417,1056.7615,507.7417,1066.7615,511.7417,1056.7615,507.7417,1060.7615" style="stroke:#181818;stroke-width:1;stroke-linejoin:miter;stroke-miterlimit:10;"/><line style="stroke:#181818;stroke-width:1;" x1="507.7417" x2="507.7417" y1="1114.3591" y2="1134.3591"/><polygon fill="#181818" points="503.7417,1124.3591,507.7417,1134.3591,511.7417,1124.3591,507.7417,1128.3591" style="stroke:#181818;stroke-width:1;stroke-linejoin:miter;stroke-miterlimit:10;"/><line style="stroke:#181818;stroke-width:1;" x1="129.251" x2="129.251" y1="844.365" y2="965.9626"/><polygon fill="#181818" points="125.251,955.9626,129.251,965.9626,133.251,955.9626,129.251,959.9626" style="stroke:#181818;stroke-width:1;stroke-linejoin:miter;stroke-miterlimit:10;"/><line style="stroke:#181818;stroke-width:1;" x1="507.7417" x2="507.7417" y1="844.365" y2="864.365"/><polygon fill="#181818" points="503.7417,854.365,507.7417,864.365,511.7417,854.365,507.7417,858.365" style="stroke:#181818;stroke-width:1;stroke-linejoin:miter;stroke-miterlimit:10;"/><line style="stroke:#181818;stroke-width:1;" x1="129.251" x2="129.251" y1="1082.3591" y2="1201.9568"/><polygon fill="#181818" points="125.251,1191.9568,129.251,1201.9568,133.251,1191.9568,129.251,1195.9568" style="stroke:#181818;stroke-width:1;stroke-linejoin:miter;stroke-miterlimit:10;"/><line style="stroke:#181818;stroke-width:1;" x1="507.7417" x2="507.7417" y1="1181.9568" y2="1201.9568"/><polygon fill="#181818" points="503.7417,1191.9568,507.7417,1201.9568,511.7417,1191.9568,507.7417,1195.9568" style="stroke:#181818;stroke-width:1;stroke-linejoin:miter;stroke-miterlimit:10;"/><line style="stroke:#181818;stroke-width:1;" x1="396.9629" x2="396.9629" y1="1207.9568" y2="1227.9568"/><polygon fill="#181818" points="392.9629,1217.9568,396.9629,1227.9568,400.9629,1217.9568,396.9629,1221.9568" style="stroke:#181818;stroke-width:1;stroke-linejoin:miter;stroke-miterlimit:10;"/><line style="stroke:#181818;stroke-width:1;" x1="396.9629" x2="396.9629" y1="1261.7556" y2="1281.7556"/><polygon fill="#181818" points="392.9629,1271.7556,396.9629,1281.7556,400.9629,1271.7556,396.9629,1275.7556" style="stroke:#181818;stroke-width:1;stroke-linejoin:miter;stroke-miterlimit:10;"/><line style="stroke:#181818;stroke-width:1;" x1="396.9629" x2="396.9629" y1="1329.3533" y2="1349.3533"/><polygon fill="#181818" points="392.9629,1339.3533,396.9629,1349.3533,400.9629,1339.3533,396.9629,1343.3533" style="stroke:#181818;stroke-width:1;stroke-linejoin:miter;stroke-miterlimit:10;"/><line style="stroke:#181818;stroke-width:1;" x1="396.9629" x2="396.9629" y1="1396.9509" y2="1416.9509"/><polygon fill="#181818" points="392.9629,1406.9509,396.9629,1416.9509,400.9629,1406.9509,396.9629,1410.9509" style="stroke:#181818;stroke-width:1;stroke-linejoin:miter;stroke-miterlimit:10;"/><?plantuml-src RLLTRzDO47tFhnZUG5jKyPeyhAf-e6YBYw1bNv3G9N5IguaJEKQ8jpOb3QkYhPP7n8U0vvLC6eFpOVSltFiN-2MScMktQK1LA_jwximvPyvCRtG3rMmhQgaNdMSXzTfkg7nL2hsmvPB-Nq_DaRxGiJdKYPxhMAUcNoPzmUzcYBDKHuG_iSxaCDPZ_CxCVpXBTMQEJ5ydzEFa3I5WRACly3Z2UOPu79Wpcm-7KcUgerBlmFExAb1jghiDzQmLRdNyq55jbzO2JxKMllVsLRtptFERr52jdblgXIe8IsNz6Uc7G7kgu-Nq2Vr107Pi_i410npX-L-y9Nf2-XmnaNbPANaDkbcamUsO1EmXOb-n3eYE_xn5uRxh8swieribeh9-Xvnzva1tI7z5u7VQthvNmRTUsEcMNB_kDG3lFL8DTGIbNWl82GMkghl1RQWJuJgIL13s0OcXCSHZc7pAsO2UQYtbjNi4CkOCNpZ7d7pNhVErJwOlZCz_gwxGHyO1CvNU2HdaWXe3soTpQWOYaluc7UM8IQx9HuJC8CEGpqcIV0VLH9vYFHSwLuYlH4hvrShq6Oy3pifPW6OgugE5hQUgTb1vx7CmeJEdUWmGd7C4Cdtpch7Z5NzdGYh3lJtdBsVdRsT9PGlskbF7ujDZgHY9da9lOdrmlQSBS3yjo9K82i_tGZXngMIZ4np8XRUea-PTG8_HtQwhGl0ItukZ28-W-CtolDGThzmT_7nbWqh1iuea_L1CK2hCfRVd4XABQKziA8CWrLIUZriiGjLvjBPTtNYoixTxVs_t5zFc_SYX92A5nPZaqx8yxvbOdFLF5n6w642wUQ_wy67LkVjayr5rOzDPtonAN7gPxqr_yVvgprL1RN-r6QZk_ghhOmEzW0smB0ZHN6dA-mMLcVtS7ETkjyc_M1z9QxZ9GYA2I5C4WWCxYVM6j4k6N-GALOM7z9BJVXHb-TPStCTRS7Jfydopn13E9hH3cRktW07xNXHxBcC-t2jPYGo80KgVuqKNyuA8UN_0FV8jtvvizgNzcTbXEn5MQ1TNjtl7saGc-NTCoGm5GAv58LagiiqAei1_nDs59YJkBij85PmdS7_WrK9ggX3_BqOCbAidN7HKx48pm5RAwP6Tx0mx8ysN88_X-ewp-s1jexg-kxcH2uXJMRV3V1r9lYE1ZiepxcfaXR3TMLWclFeolW2NOhKFhrpAo_5GA2vDCgtcGug7kXUujT2jbn_xMtTMBeK4xgtxAoAcDDuAnQdjt6uvAzT6nPnMIhmSVW80?></g></svg>